<?xml version="1.0" encoding="UTF-8" standalone="no"?>
<svg
   xmlns:dc="http://purl.org/dc/elements/1.1/"
   xmlns:cc="http://creativecommons.org/ns#"
   xmlns:rdf="http://www.w3.org/1999/02/22-rdf-syntax-ns#"
   xmlns:svg="http://www.w3.org/2000/svg"
   xmlns="http://www.w3.org/2000/svg"
   viewBox="0 0 342.66666 73.333336"
   height="73.333336"
   width="342.66666"
   xml:space="preserve"
   id="svg2"
   version="1.1"><metadata
     id="metadata8"><rdf:RDF><cc:Work
         rdf:about=""><dc:format>image/svg+xml</dc:format><dc:type
           rdf:resource="http://purl.org/dc/dcmitype/StillImage" /></cc:Work></rdf:RDF></metadata><defs
     id="defs6" /><g
     transform="matrix(1.3333333,0,0,-1.3333333,0,73.333333)"
     id="g10"><g
       transform="scale(0.1)"
       id="g12"><path
         id="path14"
         style="fill:#18468b;fill-opacity:1;fill-rule:evenodd;stroke:none"
         d="m 535.941,386.84 4.926,-4.277 4.719,-4.508 4.492,-4.723 4.27,-4.941 4.035,-5.145 3.781,-5.328 3.535,-5.52 3.266,-5.695 3.004,-5.867 2.722,-6.027 2.43,-6.176 2.137,-6.324 1.828,-6.457 1.519,-6.586 1.192,-6.696 0.863,-6.8 0.528,-6.911 0.175,-6.992 -0.175,-6.988 -0.528,-6.902 -0.863,-6.801 -1.192,-6.696 -1.519,-6.582 -1.828,-6.457 -2.137,-6.32 -2.433,-6.18 -2.719,-6.023 -3.004,-5.867 -3.27,-5.696 -3.527,-5.519 -3.785,-5.332 -4.035,-5.149 -4.27,-4.937 -4.496,-4.727 -4.715,-4.503 -4.926,-4.282 -5.132,-4.047 -5.325,-3.796 -5.511,-3.543 -5.688,-3.282 -5.859,-3.015 -6.016,-2.731 -6.176,-2.449 -6.316,-2.148 -6.445,-1.84 -6.575,-1.532 -6.691,-1.207 -6.801,-0.875 -6.894,-0.539 -6.93,-0.187 h -91.699 l 1.355,-0.91 2.895,-1.867 2.93,-1.801 2.968,-1.739 3.016,-1.679 3.051,-1.621 3.09,-1.555 3.121,-1.496 3.164,-1.426 3.195,-1.363 3.227,-1.297 3.265,-1.231 3.293,-1.16 3.332,-1.093 3.352,-1.024 3.394,-0.953 3.41,-0.879 3.454,-0.808 3.472,-0.739 3.492,-0.664 3.532,-0.586 3.554,-0.511 3.578,-0.438 3.586,-0.359 3.625,-0.278 3.649,-0.203 3.66,-0.121 3.645,-0.039 8.484,0.211 8.324,0.633 8.203,1.047 8.074,1.441 7.93,1.828 7.777,2.211 7.614,2.578 7.449,2.938 7.258,3.281 7.066,3.621 6.863,3.949 6.657,4.27 6.429,4.57 6.192,4.867 5.953,5.157 5.691,5.429 5.434,5.699 5.152,5.95 4.867,6.199 4.575,6.426 4.265,6.656 3.95,6.867 3.617,7.07 3.285,7.262 2.933,7.445 2.579,7.622 2.211,7.777 1.828,7.93 1.441,8.078 1.043,8.207 0.633,8.328 0.215,8.445 -0.215,8.442 -0.633,8.332 -1.043,8.207 -1.441,8.074 -1.828,7.93 -2.211,7.773 -2.579,7.625 -2.933,7.441 -3.285,7.262 -3.617,7.07 -3.95,6.868 -4.265,6.652 -4.575,6.43 -4.867,6.195 -5.148,5.949 -5.434,5.692 -5.695,5.437 -5.953,5.152 -6.195,4.872 -6.426,4.566 -6.649,4.266 -6.867,3.949 -7.074,3.617 -7.258,3.285 -7.441,2.934 -7.618,2.582 -7.777,2.207 -7.93,1.832 -8.074,1.437 -8.203,1.047 -8.324,0.633 -8.484,0.211 -3.645,-0.039 -3.66,-0.121 -3.649,-0.199 -3.625,-0.282 -3.597,-0.359 -3.574,-0.434 -3.551,-0.511 -3.528,-0.586 -3.492,-0.664 -3.48,-0.739 -3.449,-0.808 -3.407,-0.879 -3.394,-0.949 -3.356,-1.024 -3.332,-1.094 -3.293,-1.16 -3.265,-1.23 -3.223,-1.289 -3.195,-1.367 -3.168,-1.43 -3.117,-1.488 -3.094,-1.555 -3.055,-1.621 -3,-1.672 -2.976,-1.746 -2.934,-1.801 -2.887,-1.859 -1.359,-0.914 h 91.703 l 6.926,-0.188 6.894,-0.539 6.801,-0.871 6.691,-1.207 6.571,-1.531 6.449,-1.84 6.32,-2.149 6.168,-2.445 6.02,-2.73 5.859,-3.012 5.688,-3.281 5.507,-3.543 5.329,-3.793 z m -70.793,-133.848 1.375,0.793 1.336,0.86 1.286,0.914 1.242,0.976 1.191,1.035 1.137,1.078 1.082,1.137 1.027,1.192 0.977,1.246 0.918,1.289 0.847,1.324 0.786,1.367 0.722,1.414 0.656,1.457 0.59,1.492 0.512,1.516 0.441,1.559 0.364,1.586 0.285,1.617 0.211,1.652 0.129,1.664 0.043,1.707 -0.043,1.707 -0.129,1.68 -0.207,1.641 -0.285,1.605 -0.368,1.598 -0.445,1.57 -0.512,1.52 -0.586,1.488 -0.656,1.457 -0.719,1.418 -0.785,1.363 -0.855,1.332 -0.918,1.297 -0.973,1.238 -1.023,1.188 -1.098,1.152 -1.137,1.09 -1.187,1.031 -1.234,0.973 -1.286,0.918 -1.343,0.863 -1.371,0.789 -1.411,0.727 -1.457,0.664 -1.488,0.594 -1.527,0.519 -1.559,0.453 -1.594,0.371 -1.609,0.297 -1.645,0.215 -1.683,0.141 -1.746,0.054 H 41.7734 L 12.707,418.016 h 206.25 l 2.887,4.82 4.679,7.273 4.911,7.106 5.125,6.937 5.343,6.766 5.555,6.59 5.762,6.402 5.957,6.211 6.156,6.024 6.348,5.816 6.531,5.617 6.715,5.406 6.887,5.196 7.054,4.972 7.227,4.754 7.383,4.52 7.539,4.281 7.687,4.051 7.836,3.797 7.973,3.554 8.105,3.293 8.242,3.039 8.36,2.77 8.48,2.504 8.602,2.23 8.703,1.942 8.812,1.664 8.907,1.367 9,1.074 9.086,0.774 9.175,0.468 9.246,0.157 9.247,-0.157 9.175,-0.468 9.09,-0.774 9.004,-1.074 8.902,-1.367 8.813,-1.664 8.707,-1.942 8.594,-2.23 8.484,-2.5 8.359,-2.774 8.239,-3.035 8.109,-3.297 7.973,-3.55 7.836,-3.801 7.683,-4.047 7.539,-4.285 7.387,-4.52 7.223,-4.75 7.058,-4.976 6.883,-5.192 6.715,-5.406 6.527,-5.621 6.348,-5.816 6.156,-6.02 5.965,-6.215 5.754,-6.406 5.555,-6.582 5.347,-6.766 5.125,-6.937 4.911,-7.11 4.679,-7.273 2.887,-4.82 H 884.688 L 855.566,314.82 H 714.723 v -0.007 l 0.144,-1.188 0.141,-1.207 0.137,-1.219 0.128,-1.195 0.122,-1.199 0.125,-1.215 0.109,-1.203 0.113,-1.219 0.102,-1.23 0.097,-1.2 0.09,-1.215 0.086,-1.207 0.082,-1.218 0.074,-1.231 0.071,-1.222 0.066,-1.235 0.059,-1.219 0.054,-1.211 0.051,-1.257 0.039,-1.231 0.035,-1.219 0.032,-1.218 0.027,-1.242 0.02,-1.239 0.015,-1.219 0.008,-1.242 0.004,-1.246 -0.004,-1.242 -0.008,-1.242 -0.015,-1.219 -0.02,-1.246 -0.027,-1.234 -0.032,-1.215 -0.035,-1.242 -0.043,-1.239 -0.05,-1.203 -0.051,-1.23 -0.063,-1.246 -0.062,-1.215 -0.071,-1.219 -0.078,-1.227 -0.078,-1.195 -0.086,-1.226 -0.097,-1.243 -0.094,-1.171 -0.102,-1.235 -0.113,-1.223 -0.109,-1.191 -0.121,-1.223 -0.125,-1.191 -0.129,-1.199 -0.137,-1.215 -0.137,-1.203 -0.144,-1.176 -0.004,-0.023 H 837.035 L 807.934,145.715 h -128.45 l -2.89,-4.82 -4.68,-7.274 -4.91,-7.101 -5.125,-6.942 -5.344,-6.762 -5.555,-6.589 -5.757,-6.3989 -5.961,-6.2148 -6.157,-6.0195 -6.343,-5.8204 -6.535,-5.6171 -6.707,-5.4063 -6.891,-5.1914 -7.055,-4.9727 -7.222,-4.7539 -7.383,-4.5156 -7.535,-4.2851 -7.692,-4.0508 -7.832,-3.7969 -7.969,-3.5547 -8.109,-3.2969 -8.234,-3.0351 -8.364,-2.7696 -8.48,-2.5039 -8.598,-2.2265 -8.703,-1.9453 -8.808,-1.6602 -8.907,-1.3711 -9.004,-1.0703 -9.082,-0.7773 -9.172,-0.4649 -9.25,-0.1601 -9.25,0.1601 -9.167,0.4649 -9.083,0.7773 -9.003,1.0703 -8.911,1.3711 -8.8,1.6602 -8.703,1.9492 -8.594,2.2265 -8.481,2.5 -8.359,2.7735 -8.234,3.0351 -8.11,3.2969 -7.969,3.5547 -7.832,3.8008 -7.687,4.0508 -7.535,4.2812 -7.383,4.5195 -7.219,4.754 -7.055,4.9687 -6.886,5.1953 -6.711,5.4102 -6.531,5.6172 -6.344,5.8164 -6.156,6.0156 -5.961,6.2148 -5.758,6.402 -5.555,6.586 -5.344,6.766 -5.129,6.934 -4.906,7.109 -4.679,7.262 -2.891,4.824 H 89.4453 L 60.3477,248.934 H 449.414 l 1.746,0.062 1.684,0.141 1.644,0.218 1.617,0.301 1.598,0.379 1.559,0.449 1.519,0.52 1.496,0.594 1.457,0.664 1.414,0.73" /><path
         id="path16"
         style="fill:#fab41d;fill-opacity:1;fill-rule:evenodd;stroke:none"
         d="m 455.469,398.008 5.902,-0.461 5.805,-0.746 5.711,-1.031 5.609,-1.305 5.504,-1.57 5.383,-1.832 5.265,-2.086 5.137,-2.329 5,-2.57 4.86,-2.805 4.707,-3.027 4.55,-3.242 4.387,-3.457 4.211,-3.656 4.035,-3.856 3.844,-4.039 3.648,-4.219 3.446,-4.398 3.234,-4.559 3.02,-4.715 2.793,-4.867 2.562,-5.008 2.32,-5.144 2.075,-5.27 1.824,-5.394 1.562,-5.508 1.297,-5.617 1.016,-5.719 0.738,-5.812 0.449,-5.911 0.153,-5.988 -0.153,-5.984 -0.449,-5.903 -0.738,-5.812 -1.016,-5.719 -1.297,-5.609 -1.562,-5.512 -1.824,-5.39 -2.075,-5.274 -2.32,-5.141 -2.562,-5.011 -2.797,-4.867 -3.016,-4.715 -3.234,-4.559 -3.446,-4.398 -3.652,-4.223 -3.844,-4.039 -4.031,-3.856 -4.215,-3.66 -4.383,-3.453 -4.55,-3.246 -4.711,-3.027 -4.86,-2.809 -5,-2.57 -5.136,-2.332 -5.262,-2.086 -5.387,-1.832 -5.504,-1.574 -5.605,-1.301 -5.711,-1.035 -5.809,-0.746 -5.898,-0.461 -6.156,-0.168 H 300.508 l 35.332,-28.34 3.047,-2.34 3.097,-2.281 3.149,-2.215 3.191,-2.149 3.239,-2.085 3.289,-2.024 3.332,-1.953 3.379,-1.879 3.421,-1.82 3.461,-1.742 3.504,-1.676 3.543,-1.598 3.586,-1.531 3.625,-1.453 3.66,-1.383 3.7,-1.301 3.73,-1.226 3.77,-1.149 3.804,-1.066 3.832,-0.992 3.864,-0.907 3.898,-0.828 3.926,-0.742 3.957,-0.656 3.976,-0.5745 4.012,-0.4922 4.031,-0.4023 4.059,-0.3125 4.082,-0.2266 4.101,-0.1367 4.227,-0.0429 9.34,0.2343 9.332,0.7071 9.195,1.1723 9.051,1.617 8.898,2.054 8.731,2.481 8.543,2.891 8.351,3.292 8.145,3.684 7.926,4.063 7.695,4.425 7.461,4.782 7.203,5.125 6.942,5.453 6.664,5.777 6.382,6.086 6.082,6.383 5.774,6.668 5.457,6.941 5.125,7.203 4.777,7.461 4.43,7.699 4.059,7.926 3.683,8.149 3.293,8.355 2.891,8.543 2.48,8.731 2.051,8.898 1.617,9.059 1.168,9.199 0.711,9.328 0.242,9.449 -0.242,9.449 -0.711,9.329 -1.168,9.199 -1.617,9.054 -2.051,8.895 -2.48,8.73 -2.891,8.547 -3.293,8.352 -3.683,8.148 -4.059,7.926 -4.43,7.699 -4.777,7.457 -5.125,7.207 -5.457,6.942 -5.774,6.668 -6.082,6.375 -6.382,6.086 -6.664,5.773 -6.942,5.457 -7.203,5.125 -7.461,4.781 -7.699,4.426 -7.926,4.059 -8.141,3.683 -8.351,3.293 -8.547,2.895 -8.727,2.476 -8.898,2.055 -9.051,1.617 -9.195,1.168 -9.332,0.711 -9.34,0.235 -4.227,-0.047 -4.101,-0.137 -4.082,-0.227 -4.059,-0.308 -4.031,-0.402 -4.012,-0.489 -3.98,-0.578 -3.953,-0.656 -3.926,-0.742 -3.898,-0.828 -3.864,-0.903 -3.832,-0.992 -3.804,-1.066 -3.77,-1.149 -3.73,-1.226 -3.7,-1.301 -3.66,-1.379 -3.625,-1.453 -3.582,-1.531 -3.547,-1.598 -3.504,-1.672 -3.461,-1.742 -3.421,-1.817 -3.375,-1.882 -3.333,-1.954 -3.292,-2.019 -3.239,-2.086 -3.191,-2.152 -3.149,-2.215 -3.097,-2.278 -3.047,-2.339 -35.313,-28.344 H 449.316 Z M 230.242,165.555 H 104.469 L 86.5547,229.094 H 449.766 l 2.57,0.09 2.652,0.218 2.625,0.352 2.586,0.48 2.539,0.602 2.489,0.715 2.441,0.84 2.391,0.949 2.332,1.062 2.261,1.164 2.196,1.266 2.136,1.375 2.059,1.465 1.98,1.558 1.907,1.649 1.824,1.742 1.738,1.828 1.653,1.906 1.554,1.985 1.469,2.066 1.367,2.133 1.266,2.203 1.16,2.274 1.059,2.336 0.941,2.402 0.828,2.449 0.711,2.508 0.59,2.555 0.457,2.597 0.336,2.633 0.199,2.672 0.07,2.699 -0.07,2.703 -0.199,2.668 -0.332,2.637 -0.461,2.598 -0.59,2.554 -0.711,2.508 -0.824,2.453 -0.945,2.399 -1.055,2.34 -1.156,2.273 -1.27,2.207 -1.363,2.137 -1.469,2.066 -1.559,1.988 -1.648,1.907 -1.738,1.828 -1.824,1.746 -1.907,1.656 -1.98,1.559 -2.063,1.469 -2.129,1.375 -2.203,1.269 -2.269,1.168 -2.328,1.063 -2.391,0.949 -2.445,0.836 -2.5,0.718 -2.543,0.598 -2.59,0.477 -2.629,0.347 -2.664,0.219 -2.555,0.082 H 56.8008 L 38.9102,398.172 H 230.199 l 8.504,14.195 4.332,6.731 4.547,6.582 4.746,6.425 4.949,6.266 5.141,6.102 5.34,5.929 5.519,5.754 5.703,5.574 5.879,5.395 6.047,5.199 6.219,5.008 6.379,4.813 6.535,4.605 6.691,4.398 6.833,4.184 6.98,3.969 7.113,3.746 7.25,3.516 7.379,3.285 7.504,3.05 7.621,2.813 7.742,2.562 7.844,2.317 7.953,2.062 8.059,1.797 8.152,1.539 8.246,1.266 8.332,0.996 8.418,0.715 8.5,0.433 8.574,0.149 8.575,-0.149 8.5,-0.433 8.418,-0.715 8.336,-0.996 8.246,-1.266 8.152,-1.539 8.059,-1.797 7.953,-2.062 7.847,-2.313 7.739,-2.566 7.621,-2.809 7.5,-3.05 7.379,-3.286 7.25,-3.519 7.117,-3.746 6.976,-3.965 6.836,-4.188 6.688,-4.394 6.535,-4.606 6.379,-4.812 6.215,-5.004 6.051,-5.207 5.878,-5.391 5.704,-5.574 5.519,-5.754 5.336,-5.933 5.145,-6.102 4.949,-6.266 4.746,-6.425 4.547,-6.582 4.336,-6.735 8.5,-14.191 h 190.207 l -17.922,-63.508 h -148.66 l 2.554,-17.84 0.157,-1.109 0.148,-1.11 0.145,-1.105 0.136,-1.113 0.137,-1.117 0.133,-1.114 0.125,-1.113 0.117,-1.113 0.117,-1.121 0.11,-1.118 0.105,-1.125 0.102,-1.121 0.093,-1.121 0.09,-1.133 0.086,-1.121 0.078,-1.121 0.078,-1.136 0.071,-1.137 0.066,-1.125 0.059,-1.133 0.054,-1.137 0.051,-1.136 0.043,-1.137 0.039,-1.137 0.035,-1.137 0.028,-1.148 0.023,-1.141 0.02,-1.14 0.011,-1.149 0.012,-1.144 v -1.145 -1.144 l -0.012,-1.145 -0.011,-1.144 -0.02,-1.145 -0.023,-1.137 -0.028,-1.14 -0.035,-1.145 -0.039,-1.133 -0.047,-1.132 -0.047,-1.137 -0.058,-1.145 -0.059,-1.129 -0.066,-1.125 -0.07,-1.136 -0.075,-1.133 -0.078,-1.121 -0.086,-1.121 -0.093,-1.129 -0.094,-1.125 -0.102,-1.117 -0.105,-1.121 -0.11,-1.122 -0.117,-1.117 -0.117,-1.117 -0.125,-1.109 -0.129,-1.114 -0.137,-1.121 -0.136,-1.109 -0.149,-1.106 -0.148,-1.113 -0.153,-1.109 -2.543,-17.832 h 118.926 l -17.91,-63.539 H 668.246 l -8.504,-14.188 -4.34,-6.734 -4.543,-6.578 -4.746,-6.426 -4.949,-6.266 -5.148,-6.097 -5.332,-5.934 -5.52,-5.754 -5.703,-5.574 -5.879,-5.3907 -6.051,-5.2031 -6.211,-5.0079 -6.379,-4.8085 -6.539,-4.6055 -6.683,-4.3985 -6.836,-4.1835 -6.977,-3.9688 -7.117,-3.7461 -7.25,-3.5156 -7.379,-3.2891 -7.5,-3.0469 -7.621,-2.8125 -7.734,-2.5625 -7.848,-2.3164 -7.949,-2.0586 -8.059,-1.8007 -8.152,-1.5352 -8.242,-1.2695 -8.336,-0.9922 -8.418,-0.7188 -8.496,-0.4336 -8.575,-0.1445 -8.574,0.1445 -8.496,0.4336 -8.414,0.7188 -8.336,0.9922 -8.242,1.2695 -8.148,1.5352 -8.055,1.8047 -7.949,2.0585 -7.844,2.3165 -7.738,2.5625 -7.618,2.8085 -7.5,3.0508 -7.378,3.2891 -7.247,3.5195 -7.117,3.7461 -6.972,3.9649 -6.832,4.1836 -6.688,4.3984 -6.535,4.6094 -6.379,4.8047 -6.211,5.0117 -6.055,5.2031 -5.875,5.3909 -5.703,5.574 -5.519,5.754 -5.336,5.93 -5.145,6.101 -4.949,6.262 -4.746,6.426 -4.543,6.582 -4.34,6.726 -8.504,14.188" /><path
         id="path18"
         style="fill:#18468b;fill-opacity:1;fill-rule:nonzero;stroke:none"
         d="m 1163.37,146.297 h 61.36 v 122.394 h 61.34 V 146.297 h 60.99 v 214.242 c 0,16.531 -5.88,30.856 -18,42.981 -12.12,12.125 -26.45,18.367 -42.99,18.367 h -61.34 c -16.53,0 -31.23,-5.875 -43.35,-18 -12.13,-12.121 -18.01,-26.453 -18.01,-43.348 z m 61.36,153.258 v 60.984 c 0,17.266 13.96,30.856 30.49,30.856 17.26,0 30.85,-13.59 30.85,-30.856 v -60.984 h -61.34" /><path
         id="path20"
         style="fill:#18468b;fill-opacity:1;fill-rule:nonzero;stroke:none"
         d="M 1494.8,417.59 V 206.75 c 0,-16.273 -13.59,-30.379 -30.85,-30.379 h -30.5 V 417.59 H 1372.1 V 146.297 h 79.35 c 28.66,0 53.27,10.183 73.48,30.437 20.57,20.25 30.86,44.481 30.86,72.692 V 417.59 h -60.99" /><path
         id="path22"
         style="fill:#18468b;fill-opacity:1;fill-rule:nonzero;stroke:none"
         d="m 1221.18,428.074 h 48.45 l 41.26,63.727 h -48.45 l -41.26,-63.727" /><path
         id="path24"
         style="fill:#18468b;fill-opacity:1;fill-rule:nonzero;stroke:none"
         d="m 1019.46,228.848 0.17,0.277 0.16,-0.277 v 0.554 l 56.9,97.418 V 146.297 h 61.35 V 417.59 h -30.55 c -24.49,0 -36.78,-27.777 -46.72,-44.985 l -41.14,-71.179 -41.15,71.179 c -9.941,17.208 -22.23,44.985 -46.714,44.985 H 901.211 V 146.297 h 61.348 V 326.82 l 56.901,-97.418 v -0.554" /><path
         id="path26"
         style="fill:#18468b;fill-opacity:1;fill-rule:evenodd;stroke:none"
         d="m 1576.19,298.969 h 62.56 v -30.227 h -62.56 v 30.227" /><path
         id="path28"
         style="fill:#18468b;fill-opacity:1;fill-rule:nonzero;stroke:none"
         d="m 1996.21,146.332 h 61.26 v 122.211 h 61.26 V 146.332 h 60.9 V 360.25 c 0,16.504 -5.87,30.813 -17.98,42.914 -12.1,12.106 -26.41,18.34 -42.92,18.34 h -61.26 c -16.5,0 -31.17,-5.867 -43.28,-17.973 -12.1,-12.105 -17.98,-26.41 -17.98,-43.281 z m 61.26,153.023 v 60.895 c 0,17.238 13.94,30.813 30.45,30.813 17.24,0 30.81,-13.575 30.81,-30.813 v -60.895 h -61.26" /><path
         id="path30"
         style="fill:#18468b;fill-opacity:1;fill-rule:nonzero;stroke:none"
         d="m 2444.39,146.297 h 60.07 v 241.426 h 60.43 v 30.035 h -180.93 v -30.035 h 60.43 V 146.297" /><path
         id="path32"
         style="fill:#18468b;fill-opacity:1;fill-rule:nonzero;stroke:none"
         d="m 2265.57,297.254 v 90.469 h 30.03 c 17.01,0 30.4,-13.391 30.4,-30.399 v -30.035 c 0,-16.285 -13.39,-30.035 -30.4,-30.035 z m -60.43,-150.957 h 60.43 v 120.562 h 30.03 c 17.01,0 30.4,-13.754 30.4,-30.039 v -90.523 h 60.07 v 106.808 c 0,17.012 -13.75,30.399 -30.03,30.399 H 2326 c 21.71,0 37.27,6.152 46.32,18.457 9.05,12.664 13.75,25.687 13.75,39.078 v 16.285 c 0,16.285 -5.79,30.399 -17.73,42.34 -11.95,11.941 -26.05,18.094 -42.34,18.094 H 2205.14 V 146.297" /><path
         id="path34"
         style="fill:#18468b;fill-opacity:1;fill-rule:nonzero;stroke:none"
         d="m 1875.03,146.297 h 60.07 v 241.426 h 60.44 v 30.035 H 1814.6 v -30.035 h 60.43 V 146.297" /><path
         id="path36"
         style="fill:#18468b;fill-opacity:1;fill-rule:nonzero;stroke:none"
         d="m 1756.28,146.297 c 30.74,-0.117 61.2,28.578 61.2,62.269 v 11.981 c 0,15.676 -8.91,39.726 -22.7,50.879 l -82.91,67.054 c -7.23,5.844 -10.47,13.95 -10.94,21.633 -1.11,17.953 8.52,30.559 27.87,29.688 14.74,-0.664 23.1,-9.391 23.28,-29.688 h 30.03 l 0.01,-0.058 0.31,0.058 h 0.29 l 0.01,-0.058 h 29.19 c -0.81,35.769 -26.4,61.261 -61.56,61.273 l -49.48,0.016 c -30.67,0.011 -60.95,-24.867 -61.2,-58.489 L 1639.6,352.5 c -0.12,-15.645 10.21,-41.695 25.2,-52.898 l 0.35,-0.27 c 27.33,-24.148 52.07,-42.902 80.14,-66.184 7.14,-5.925 10.46,-13.949 10.93,-21.628 1.11,-17.961 -12.18,-29.497 -28.6,-29.688 -19.71,-0.238 -26.81,8.395 -32.95,29.688 h -30.04 v 0.058 l -0.12,-0.058 h -0.48 l -0.01,0.058 h -29.19 c 0.81,-35.773 26.33,-64.926 61.56,-65.055 l 59.89,-0.226" /></g></g></svg>